<svg width="232" height="66" viewBox="0 0 232 66" fill="none" xmlns="http://www.w3.org/2000/svg">
<path d="M103.875 18.9615C103.298 18.0186 102.09 17.5996 100.201 17.5996C98.3636 17.5472 96.6315 18.3329 95.4243 19.7472C94.217 21.1615 93.6396 23.2043 93.6396 25.9281C93.6396 28.652 94.2695 30.6948 95.5817 32.0567C96.894 33.4186 98.6786 34.152 100.568 34.0996C102.615 34.0996 104.295 33.4186 105.607 32.0567C106.919 30.6948 107.497 28.652 107.497 25.9281V11.1043H103.822L103.875 18.9615ZM103.14 29.3853C102.615 30.1186 101.775 30.4853 100.621 30.4853C99.4659 30.4853 98.5736 30.1186 98.1012 29.3853C97.5763 28.652 97.3663 27.4996 97.3663 25.9281C97.3663 24.3567 97.6288 23.152 98.1012 22.3662C98.5736 21.5805 99.4659 21.1615 100.621 21.1615C101.775 21.1615 102.615 21.4758 103.14 22.1043C103.665 22.7329 103.875 23.9901 103.875 25.8758C103.875 27.4996 103.613 28.652 103.14 29.3853Z" fill="#EF4A6B"/>
<path d="M223.497 18.6996C221.503 18.6996 220.505 19.5901 220.505 21.371V33.8901H222.185V22.2615C222.185 20.6377 223.13 20.271 223.917 20.271H227.119V18.9091C225.964 18.752 224.757 18.6996 223.497 18.6996Z" fill="#EF4A6B"/>
<path d="M213.576 18.542C212.264 18.542 210.952 18.6992 209.639 18.9611V20.2706C211.109 20.1658 212.421 20.1135 213.576 20.1135C214.993 20.1135 216.043 20.4801 216.673 21.1611C217.303 21.8944 217.67 22.8373 217.67 23.7801V25.0373H213.996C210.164 25.0373 208.327 26.6087 208.327 29.6992C208.275 30.9039 208.747 32.0563 209.639 32.842C210.479 33.6277 211.739 33.9944 213.314 33.9944C214.888 34.0468 216.358 33.4182 217.408 32.3182L217.723 32.0039V33.8373H219.402V23.9896C219.402 22.2087 218.93 20.8468 218.038 19.9039C217.145 18.9611 215.571 18.542 213.576 18.542ZM217.67 28.8611C217.723 29.9087 217.25 30.9039 216.41 31.5325C215.623 32.1611 214.521 32.4754 213.104 32.4754C212.999 32.4754 212.946 32.4754 212.841 32.4754C211.214 32.423 209.902 31.0611 209.954 29.4373C209.954 27.3944 211.424 26.3468 214.363 26.3468H217.618L217.67 28.8611Z" fill="#EF4A6B"/>
<path d="M70.9124 28.4944C70.8599 28.7563 70.7549 28.9135 70.7024 28.9135C70.6499 28.9135 70.5449 28.7563 70.4925 28.4944L68.078 19.3277C67.8155 18.3325 67.2906 17.8087 66.4508 17.8087H65.821C64.9811 17.8087 64.4038 18.3325 64.1413 19.3277L61.7793 28.4944C61.7268 28.7563 61.6219 28.9135 61.5694 28.9135C61.5169 28.9135 61.4119 28.7563 61.3594 28.4944L58.735 17.8087H54.7983L58.9449 31.9516C59.3124 33.2611 60.2047 33.8897 61.6219 33.8897C62.8816 33.8897 63.7214 33.2087 64.0888 31.7944L65.9784 24.7754C66.0309 24.5658 66.0834 24.5135 66.1359 24.5135C66.1884 24.5135 66.2409 24.6182 66.2934 24.7754L68.2354 31.9516C68.5504 33.2611 69.3902 33.8897 70.7549 33.8897C72.0146 33.8897 72.9069 33.2087 73.3268 31.7944L77.421 17.7563H73.4843L70.9124 28.4944Z" fill="#EF4A6B"/>
<path d="M118.887 19.0139C118.309 18.071 117.102 17.652 115.212 17.652C113.375 17.5996 111.643 18.3853 110.436 19.7996C109.229 21.2139 108.651 23.2567 108.651 25.9805C108.651 28.7043 109.281 30.7472 110.593 32.1091C111.906 33.471 113.69 34.2043 115.58 34.152C117.627 34.152 119.307 33.471 120.619 32.1091C121.931 30.7472 122.508 28.7043 122.508 25.9805V11.1043H118.834L118.887 19.0139ZM118.152 29.3853C117.627 30.1186 116.787 30.4853 115.632 30.4853C114.478 30.4853 113.585 30.1186 113.113 29.3853C112.641 28.652 112.378 27.4996 112.378 25.9281C112.378 24.3567 112.641 23.152 113.113 22.3662C113.638 21.5805 114.478 21.1615 115.632 21.1615C116.787 21.1615 117.627 21.4758 118.152 22.1043C118.677 22.7329 118.887 23.9901 118.887 25.8758C118.887 27.4996 118.677 28.652 118.152 29.3853Z" fill="#EF4A6B"/>
<path d="M176.782 18.542C175.47 18.542 174.158 18.6992 172.845 18.9611V20.2706C174.315 20.1658 175.627 20.1135 176.782 20.1135C178.199 20.1135 179.25 20.4801 179.879 21.1611C180.509 21.8944 180.877 22.8373 180.877 23.7801V25.0373H177.203C173.371 25.0373 171.533 26.6087 171.533 29.6992C171.481 30.9039 171.953 32.0563 172.845 32.842C173.685 33.6277 174.945 33.9944 176.52 33.9944C178.094 34.0468 179.565 33.4182 180.614 32.3182L180.929 32.0039V33.8373H182.608V23.9896C182.608 22.2087 182.136 20.8468 181.244 19.9039C180.351 18.9611 178.777 18.542 176.782 18.542ZM180.877 28.8611C180.929 29.9087 180.457 30.9039 179.617 31.5325C178.83 32.1611 177.727 32.4754 176.31 32.4754C176.205 32.4754 176.153 32.4754 176.048 32.4754C174.421 32.423 173.108 31.0611 173.161 29.4373C173.161 27.3944 174.63 26.3468 177.569 26.3468H180.824L180.877 28.8611Z" fill="#EF4A6B"/>
<path d="M85.6092 17.652C83.7196 17.5996 81.8825 18.333 80.5703 19.6949C79.258 21.0568 78.5757 23.0996 78.5757 25.8234C78.5757 28.5472 79.258 30.5901 80.6227 32.0044C81.9875 33.4187 83.8246 34.152 86.1865 34.152C87.9712 34.0996 89.7033 33.8901 91.4354 33.5234V30.2234C89.8083 30.433 88.2336 30.5901 86.6065 30.5901C84.9793 30.5901 83.8246 30.2234 83.1947 29.5425C82.6173 28.9663 82.3024 28.233 82.3024 27.3949H91.3304C92.1178 27.3949 92.4852 26.9758 92.4852 26.0853V25.5615C92.4852 23.152 91.8553 21.2663 90.5956 19.8521C89.3359 18.333 87.4988 17.5472 85.6092 17.652ZM82.3024 24.3568C82.3024 23.5711 82.6173 22.8377 83.0897 22.2615C83.6146 21.5806 84.4544 21.2139 85.5567 21.2139C86.6589 21.2139 87.4463 21.5282 87.9187 22.2092C88.3911 22.8378 88.706 23.6234 88.7585 24.4091H82.3024V24.3568Z" fill="#EF4A6B"/>
<path d="M201.4 18.542C200.088 18.542 198.775 18.6992 197.463 18.9611V20.2706C198.933 20.1658 200.245 20.1135 201.4 20.1135C202.817 20.1135 203.867 20.4801 204.497 21.1611C205.127 21.8944 205.494 22.8373 205.494 23.7801V25.0373H201.82C197.988 25.0373 196.151 26.6087 196.151 29.6992C196.098 30.9039 196.571 32.0563 197.463 32.842C198.303 33.6277 199.563 33.9944 201.137 33.9944C202.712 34.0468 204.182 33.4182 205.231 32.3182L205.546 32.0039V33.8373H207.226V23.9896C207.226 22.2087 206.754 20.8468 205.861 19.9039C204.969 18.9611 203.394 18.542 201.4 18.542ZM205.441 28.8611C205.494 29.9087 205.022 30.9039 204.182 31.5325C203.394 32.1611 202.292 32.4754 200.875 32.4754C200.77 32.4754 200.717 32.4754 200.612 32.4754C198.985 32.423 197.673 31.0611 197.726 29.4373C197.726 27.3944 199.195 26.3468 202.135 26.3468H205.389L205.441 28.8611Z" fill="#EF4A6B"/>
<path d="M194.943 20.6901V18.6996H183.71V20.271H193.001L183.71 31.8472V33.8377H194.943V32.2139H185.6L194.943 20.6901Z" fill="#EF4A6B"/>
<path d="M150.117 17.6516C148.228 17.5992 146.391 18.3325 145.131 19.6944C143.871 21.0563 143.189 23.0992 143.189 25.823C143.189 28.5468 143.766 30.5896 144.974 32.0039C146.128 33.4182 147.913 34.2039 149.75 34.1516C151.43 34.1516 152.637 33.5754 153.424 32.4754V33.7325C153.424 35.8801 152.322 36.9801 150.065 36.9801H145.656V40.1754C147.126 40.3849 148.595 40.4896 150.117 40.542C154.789 40.542 157.151 38.2373 157.151 33.523V25.7706C157.151 23.0468 156.521 21.0039 155.261 19.642C153.897 18.3325 152.217 17.6516 150.117 17.6516ZM152.637 29.542C152.112 30.1706 151.272 30.4849 150.117 30.4849C148.963 30.4849 148.07 30.0658 147.598 29.3325C147.126 28.5992 146.811 27.342 146.811 25.7706C146.811 24.1992 147.073 23.0468 147.598 22.3135C148.123 21.5801 148.963 21.2135 150.117 21.2135C151.272 21.2135 152.112 21.5801 152.637 22.3135C153.162 23.0468 153.424 24.1992 153.424 25.7706C153.424 27.6039 153.162 28.8611 152.637 29.542Z" fill="#EF4A6B"/>
<path d="M127.6 17.8095H123.926V33.9429H127.6V17.8095Z" fill="#EF4A6B"/>
<path d="M164.71 18.4896C162.767 18.4896 161.245 19.1182 160.248 20.323L159.934 20.6896V11.4706H158.253V26.3468C158.253 28.9658 158.831 30.9039 159.934 32.1611C159.986 32.2134 160.038 32.2658 160.091 32.3182C162.505 34.623 166.389 34.5706 168.699 32.1611C169.801 30.9039 170.378 28.9658 170.378 26.3468C170.378 23.7277 169.854 21.7372 168.857 20.4277C167.807 19.1706 166.284 18.4372 164.71 18.4896ZM167.649 30.7992C166.967 31.8468 165.812 32.3706 164.29 32.3706C162.767 32.3706 161.665 31.8468 160.93 30.7992C160.248 29.7515 159.934 28.2849 159.934 26.3468C159.934 24.042 160.301 22.4182 160.983 21.5277C161.666 20.5849 162.82 20.1134 164.29 20.1134C167.176 20.1134 168.646 22.2087 168.646 26.3468C168.646 28.2849 168.331 29.8039 167.649 30.7992Z" fill="#EF4A6B"/>
<path d="M125.763 11.6803C124.608 11.6803 123.716 12.6232 123.716 13.7232C123.716 14.8756 124.661 15.766 125.763 15.766C126.918 15.766 127.81 14.8232 127.81 13.7232C127.81 12.5708 126.918 11.6803 125.763 11.6803Z" fill="#EF4A6B"/>
<path d="M135.526 17.7042C133.479 17.7042 131.904 18.228 130.749 19.1708C129.594 20.1661 129.017 21.8423 129.017 24.2518V33.9946H132.691V24.3565C132.691 23.2565 132.901 22.4708 133.269 21.9994C133.636 21.528 134.423 21.2661 135.578 21.2661C136.733 21.2661 137.52 21.528 137.888 21.9994C138.255 22.4708 138.413 23.2565 138.413 24.3565V33.9946H142.087V24.2518C142.087 21.8946 141.509 20.1661 140.355 19.1708C139.147 18.228 137.573 17.7042 135.526 17.7042Z" fill="#EF4A6B"/>
<path d="M38.7368 11.4706H14.382C9.08069 11.4706 4.8291 15.7134 4.8291 21.0039V45.3087C4.8291 50.5992 9.13317 54.8418 14.382 54.8418H38.7368C44.0382 54.8418 48.2897 50.5468 48.2897 45.3087V21.0039C48.3422 15.7134 44.0382 11.4706 38.7368 11.4706ZM27.7667 25.8753C27.7667 25.6134 27.9241 25.3515 28.1866 25.2468C28.6065 25.0896 28.9739 24.8801 29.3938 24.723C29.4463 24.723 29.4988 24.6706 29.4988 24.6706C29.5513 24.6706 29.5513 24.6706 29.5513 24.7753C29.7612 25.7182 29.7087 26.7134 29.4463 27.6563C29.1314 28.4944 28.554 29.1753 27.7142 29.542V25.8753H27.7667ZM42.0436 35.1468C41.8336 36.9801 40.9413 38.7087 39.5241 39.9134C36.4273 42.5325 31.8083 42.1658 29.1839 39.1277C28.7639 38.7087 28.659 38.0277 28.9739 37.5039C29.1839 37.0325 29.3413 36.5087 29.5513 35.9849C29.7612 36.3515 29.9712 36.7182 30.1811 37.0849C31.1259 38.8658 33.068 39.9134 35.0626 39.7039C37.6345 39.5992 39.7341 37.6611 40.1015 35.0944C40.4689 32.3182 38.6318 29.7515 35.9024 29.123C33.3305 28.5468 30.7585 29.9087 29.8137 32.3706C28.7115 35.1992 27.7667 38.0277 26.7694 40.8563C26.6644 41.223 26.297 41.4325 25.8771 41.4325C25.7196 41.4325 25.5096 41.4325 25.3522 41.4325H25.0897C24.6173 41.4849 24.1974 41.223 24.0925 40.7515C23.8825 40.123 23.6201 39.0753 23.4101 38.3944C22.7277 36.3515 22.0454 34.3611 21.363 32.3182C21.2581 32.4753 21.2056 32.6325 21.1531 32.7896C20.3133 35.4087 19.421 38.0801 18.6861 40.6992C18.6336 41.1706 18.2137 41.5372 17.7413 41.4325H17.6888C17.4789 41.4325 17.2689 41.4325 17.059 41.4325C16.6391 41.4849 16.2191 41.223 16.1142 40.8039C15.6418 39.5992 15.1694 38.342 14.7495 37.1372C13.5947 34.0468 12.3875 30.9039 11.2327 27.8134C11.1802 27.7087 11.1802 27.6039 11.1277 27.4992H12.4925C12.9124 27.4992 13.2273 27.7611 13.3323 28.1801C13.7522 29.2801 14.1196 30.4325 14.592 31.5325C15.4318 33.7849 16.2716 36.0372 17.1115 38.2896C17.1639 38.4992 17.3214 38.7087 17.5314 38.8658C17.6363 38.5515 17.7413 38.2372 17.8463 37.923C18.6861 35.3039 19.5259 32.6849 20.4182 30.0658C20.6282 29.4896 20.8906 29.2277 21.4155 29.2277C21.8879 29.123 22.4128 29.3849 22.5178 29.9087C22.5178 29.9611 22.5178 29.9611 22.5178 30.0134C23.5151 33.0515 24.4599 36.0373 25.4572 39.1277C25.8246 38.1849 26.087 37.3468 26.402 36.4563C26.9268 34.9896 27.4517 33.4706 28.0291 32.0039C28.9214 29.4896 31.1784 27.6563 33.8029 27.2896C35.8499 26.9753 37.897 27.6039 39.4191 28.9134C41.3087 30.3277 42.3585 32.7372 42.0436 35.1468Z" fill="#EF4A6B"/>
<path d="M56.3203 42.5855C56.6352 42.1665 57.2126 41.9569 58.0524 41.9569C58.1574 41.9569 58.2099 41.9569 58.3148 41.9569C58.4198 41.9569 58.4723 41.9569 58.6298 41.9569V43.0569C58.5248 43.0569 58.4198 43.0569 58.3148 43.0569C58.2624 43.0569 58.2099 43.0569 58.1574 43.0569C57.79 43.0569 57.5275 43.1617 57.475 43.3188C57.4225 43.476 57.37 43.9998 57.37 44.7855H58.6298V45.7284H57.37V51.8569H56.1103V45.7284H55.0605V44.7855H56.1103V43.6855C56.0578 43.1617 56.1628 42.8474 56.3203 42.5855Z" fill="#EF4A6B"/>
<path d="M59.7842 44.7331H60.9914V45.9903C61.0964 45.7284 61.3588 45.4665 61.7263 45.0998C62.0937 44.7331 62.5661 44.576 63.091 44.576C63.091 44.576 63.1435 44.576 63.1959 44.576C63.2484 44.576 63.3534 44.576 63.5109 44.6284V45.8855C63.4584 45.8855 63.3534 45.8855 63.3009 45.8331C63.2484 45.8331 63.1959 45.8331 63.091 45.8331C62.4611 45.8331 61.9362 46.0427 61.6213 46.4093C61.2539 46.776 61.0964 47.2474 61.0964 47.7712V51.8569H59.8367L59.7842 44.7331Z" fill="#EF4A6B"/>
<path d="M70.1248 45.4667C70.8072 46.0952 71.1221 46.9857 71.1221 48.1905C71.1221 49.3952 70.8072 50.2857 70.2298 51.0191C69.6524 51.7524 68.7076 52.1191 67.4479 52.1191C66.3981 52.1191 65.5583 51.8048 64.9809 51.1238C64.3511 50.4429 64.0361 49.5524 64.0361 48.4524C64.0361 47.2476 64.3511 46.3048 64.9809 45.5714C65.6108 44.8381 66.5031 44.5238 67.6054 44.5238C68.6551 44.5762 69.4425 44.8381 70.1248 45.4667ZM69.3375 50.2333C69.6524 49.6572 69.8099 48.9762 69.8099 48.2429C69.8099 47.5619 69.7049 47.0381 69.495 46.6191C69.1275 45.9905 68.4977 45.6238 67.6578 45.6238C66.8705 45.6238 66.2931 45.8857 65.9782 46.4619C65.6108 47.0381 65.4533 47.6667 65.4533 48.5048C65.4533 49.2905 65.6108 49.8667 65.9782 50.3905C66.3456 50.9143 66.923 51.1238 67.6578 51.1238C68.4452 51.1238 69.0226 50.8095 69.3375 50.2333Z" fill="#EF4A6B"/>
<path d="M72.6968 44.7333H73.9565V45.7286C74.2714 45.3619 74.5339 45.1 74.7963 44.9429C75.2162 44.681 75.6886 44.5238 76.2135 44.5238C76.7909 44.5238 77.3158 44.681 77.6832 44.9429C77.8932 45.1 78.1031 45.3619 78.2606 45.6238C78.523 45.2572 78.8904 44.9429 79.2579 44.7857C79.6253 44.5762 80.0977 44.5238 80.5701 44.5238C81.5674 44.5238 82.3022 44.8905 82.6696 45.5714C82.8796 45.9381 82.9846 46.4619 82.9846 47.0905V51.8572H81.6723V46.9333C81.6723 46.4619 81.5674 46.1476 81.3049 45.9381C81.0425 45.781 80.7275 45.6762 80.3601 45.6762C79.8877 45.6762 79.4153 45.8333 79.0479 46.1476C78.6805 46.4619 78.523 46.9857 78.523 47.7191V51.8572H77.2108V47.1952C77.2108 46.7238 77.1583 46.3572 77.0008 46.1476C76.7909 45.8333 76.4235 45.6762 75.8986 45.6762C75.4262 45.6762 74.9538 45.8333 74.5864 46.2C74.1665 46.5667 74.009 47.1952 74.009 48.0857V51.8572H72.7493V44.7333H72.6968Z" fill="#EF4A6B"/>
<path d="M88.9158 42.1145H90.9628L93.9547 50.3907L96.9465 42.1145H98.9411V51.9097H97.5764V46.0955C97.5764 45.8859 97.5764 45.5716 97.5764 45.1002C97.5764 44.6288 97.5764 44.1574 97.5764 43.6336L94.637 51.8574H93.2198L90.228 43.6336V43.9478C90.228 44.2097 90.228 44.524 90.228 45.0478C90.228 45.5193 90.228 45.8859 90.228 46.1478V51.9097H88.8633L88.9158 42.1145Z" fill="#EF4A6B"/>
<path d="M104.978 47.5617C105.293 47.5093 105.45 47.4046 105.555 47.195C105.608 47.0903 105.66 46.9331 105.66 46.7236C105.66 46.3046 105.503 46.0427 105.188 45.8331C104.873 45.6236 104.453 45.5712 103.876 45.5712C103.193 45.5712 102.721 45.7284 102.458 46.095C102.301 46.3046 102.196 46.5665 102.144 46.9331H100.936C100.936 46.0427 101.251 45.4665 101.829 45.0998C102.406 44.7331 103.088 44.576 103.876 44.576C104.768 44.576 105.503 44.7331 106.028 45.0474C106.605 45.3617 106.867 45.8855 106.867 46.5141V50.5998C106.867 50.7046 106.92 50.8093 106.972 50.9141C107.025 51.0188 107.13 51.0188 107.34 51.0188C107.392 51.0188 107.445 51.0188 107.55 51.0188C107.602 51.0188 107.707 51.0188 107.76 50.9665V51.8569C107.55 51.9093 107.392 51.9617 107.287 51.9617C107.182 51.9617 107.025 51.9617 106.867 51.9617C106.448 51.9617 106.133 51.8046 105.923 51.5427C105.818 51.3855 105.765 51.176 105.713 50.8617C105.45 51.176 105.083 51.4379 104.61 51.6998C104.138 51.9093 103.613 52.0665 102.983 52.0665C102.301 52.0665 101.724 51.8569 101.251 51.4379C100.779 51.0188 100.569 50.5474 100.569 49.9188C100.569 49.2379 100.779 48.7665 101.251 48.3998C101.724 48.0331 102.248 47.8236 102.983 47.7188L104.978 47.5617ZM102.301 50.8093C102.563 51.0188 102.878 51.1236 103.246 51.1236C103.718 51.1236 104.138 51.0188 104.558 50.8093C105.293 50.495 105.608 49.9712 105.608 49.2379V48.295C105.45 48.3998 105.24 48.4522 105.03 48.5046C104.768 48.5569 104.558 48.6093 104.296 48.6093L103.508 48.7141C103.036 48.7665 102.721 48.8712 102.458 48.976C102.039 49.1855 101.881 49.4998 101.881 49.9712C101.881 50.3379 101.986 50.5998 102.301 50.8093Z" fill="#EF4A6B"/>
<path d="M109.229 42.7948H110.542V44.7853H111.749V45.7805H110.542V50.4424C110.542 50.7043 110.647 50.8615 110.804 50.9139C110.909 50.9662 111.067 50.9662 111.277 50.9662C111.329 50.9662 111.381 50.9662 111.486 50.9662C111.591 50.9662 111.644 50.9662 111.749 50.9662V51.9091C111.591 51.9615 111.434 51.9615 111.277 52.0139C111.119 52.0139 110.962 52.0662 110.752 52.0662C110.174 52.0662 109.754 51.9091 109.544 51.6472C109.334 51.3853 109.229 51.0186 109.229 50.5472V45.8329H108.18V44.8377H109.229V42.7948Z" fill="#EF4A6B"/>
<path d="M113.061 44.7331H114.268V45.9903C114.373 45.7284 114.583 45.4665 115.003 45.0998C115.37 44.7331 115.842 44.576 116.367 44.576C116.367 44.576 116.42 44.576 116.472 44.576C116.525 44.576 116.63 44.576 116.787 44.6284V45.8855C116.735 45.8855 116.63 45.8855 116.577 45.8331C116.525 45.8331 116.472 45.8331 116.367 45.8331C115.737 45.8331 115.213 46.0427 114.898 46.4093C114.53 46.776 114.373 47.2474 114.373 47.7712V51.8569H113.113L113.061 44.7331Z" fill="#EF4A6B"/>
<path d="M117.837 42.1145H119.149V43.4764H117.837V42.1145ZM117.837 44.7859H119.149V51.8574H117.837V44.7859Z" fill="#EF4A6B"/>
<path d="M121.04 44.7333H122.299V45.7286C122.614 45.3619 122.877 45.1 123.139 44.9429C123.559 44.681 124.031 44.5238 124.556 44.5238C125.134 44.5238 125.659 44.681 126.026 44.9429C126.236 45.1 126.446 45.3619 126.603 45.6238C126.866 45.2572 127.233 44.9429 127.601 44.7857C127.968 44.5762 128.44 44.5238 128.913 44.5238C129.91 44.5238 130.645 44.8905 131.012 45.5714C131.222 45.9381 131.327 46.4619 131.327 47.0905V51.8572H130.015V46.9333C130.015 46.4619 129.91 46.1476 129.648 45.9381C129.385 45.781 129.07 45.6762 128.703 45.6762C128.231 45.6762 127.758 45.8333 127.391 46.1476C127.023 46.4619 126.866 46.9857 126.866 47.7191V51.8572H125.554V47.1952C125.554 46.7238 125.501 46.3572 125.344 46.1476C125.134 45.8333 124.766 45.6762 124.241 45.6762C123.769 45.6762 123.297 45.8333 122.929 46.2C122.509 46.5667 122.352 47.1952 122.352 48.0857V51.8572H121.092V44.7333H121.04Z" fill="#EF4A6B"/>
<path d="M138.676 45.4667C139.358 46.0952 139.673 46.9857 139.673 48.1905C139.673 49.3952 139.358 50.2857 138.781 51.0191C138.203 51.7524 137.258 52.1191 135.999 52.1191C134.949 52.1191 134.109 51.8048 133.532 51.1238C132.902 50.4429 132.587 49.5524 132.587 48.4524C132.587 47.2476 132.902 46.3048 133.584 45.5714C134.214 44.8381 135.106 44.5238 136.209 44.5238C137.206 44.5762 138.046 44.8381 138.676 45.4667ZM137.888 50.2333C138.203 49.6572 138.361 48.9762 138.361 48.2429C138.361 47.5619 138.256 47.0381 138.046 46.6191C137.678 45.9905 137.048 45.6238 136.209 45.6238C135.421 45.6238 134.844 45.8857 134.529 46.4619C134.162 47.0381 134.004 47.6667 134.004 48.5048C134.004 49.2905 134.162 49.8667 134.529 50.3905C134.896 50.9143 135.474 51.1238 136.209 51.1238C136.996 51.1238 137.573 50.8095 137.888 50.2333Z" fill="#EF4A6B"/>
<path d="M141.247 44.7331H142.455V45.7284C142.822 45.3093 143.189 44.995 143.609 44.8379C144.029 44.6808 144.449 44.576 144.922 44.576C145.971 44.576 146.706 44.9427 147.126 45.6236C147.336 45.9903 147.441 46.5665 147.441 47.2998V51.8569H146.129V47.3522C146.129 46.9331 146.076 46.5665 145.919 46.3046C145.709 45.8855 145.289 45.6236 144.659 45.6236C144.344 45.6236 144.135 45.676 143.925 45.7284C143.557 45.8331 143.294 46.0427 142.979 46.3046C142.769 46.5141 142.612 46.776 142.56 47.0379C142.507 47.2998 142.455 47.6665 142.455 48.1379V51.8569H141.195L141.247 44.7331Z" fill="#EF4A6B"/>
<path d="M154.054 44.7335H155.471C155.314 45.205 154.894 46.2526 154.264 47.8764C153.792 49.0812 153.424 50.0764 153.109 50.8621C152.375 52.6952 151.85 53.7952 151.535 54.1619C151.22 54.5286 150.695 54.7381 149.96 54.7381C149.803 54.7381 149.645 54.7381 149.54 54.7381C149.435 54.7381 149.33 54.6857 149.173 54.6857V53.5857C149.383 53.6381 149.54 53.6905 149.645 53.6905C149.75 53.6905 149.855 53.6905 149.908 53.6905C150.17 53.6905 150.328 53.6381 150.433 53.5857C150.538 53.5333 150.643 53.4286 150.695 53.3238C150.695 53.2714 150.8 53.1143 150.957 52.8C151.115 52.4857 151.22 52.224 151.272 52.0669L148.438 44.7335H149.908L151.955 50.5478L154.054 44.7335Z" fill="#EF4A6B"/>
<path d="M155.786 50.4422H157.256V51.9089H155.786V50.4422Z" fill="#EF4A6B"/>
<path d="M164.553 45.1526C165.077 45.5716 165.392 46.2002 165.497 47.1954H164.29C164.238 46.7764 164.028 46.4097 163.765 46.0954C163.503 45.7812 163.083 45.6764 162.453 45.6764C161.666 45.6764 161.036 46.0431 160.721 46.7764C160.511 47.2478 160.406 47.8764 160.406 48.5574C160.406 49.2383 160.563 49.8669 160.878 50.3383C161.193 50.8097 161.718 51.0716 162.401 51.0716C162.925 51.0716 163.345 50.9145 163.66 50.6002C163.975 50.2859 164.185 49.8669 164.29 49.3431H165.55C165.392 50.2859 165.025 50.9669 164.5 51.3859C163.975 51.805 163.188 52.0145 162.348 52.0145C161.351 52.0145 160.563 51.6478 159.986 51.0193C159.409 50.3383 159.094 49.5002 159.094 48.4526C159.094 47.1954 159.409 46.2526 160.091 45.5193C160.721 44.8383 161.561 44.4716 162.558 44.4716C163.293 44.5764 164.028 44.7335 164.553 45.1526Z" fill="#EF4A6B"/>
<path d="M172.321 45.4667C173.003 46.0952 173.318 46.9857 173.318 48.1905C173.318 49.3952 173.003 50.2857 172.426 51.0191C171.848 51.7524 170.903 52.1191 169.644 52.1191C168.594 52.1191 167.754 51.8048 167.177 51.1238C166.547 50.4429 166.232 49.5524 166.232 48.4524C166.232 47.2476 166.547 46.3048 167.229 45.5714C167.859 44.8381 168.751 44.5238 169.854 44.5238C170.851 44.5762 171.638 44.8381 172.321 45.4667ZM171.533 50.2333C171.848 49.6572 172.006 48.9762 172.006 48.2429C172.006 47.5619 171.901 47.0381 171.691 46.6191C171.323 45.9905 170.693 45.6238 169.854 45.6238C169.066 45.6238 168.489 45.8857 168.174 46.4619C167.807 47.0381 167.649 47.6667 167.649 48.5048C167.649 49.2905 167.807 49.8667 168.174 50.3905C168.541 50.9143 169.119 51.1238 169.854 51.1238C170.641 51.1238 171.218 50.8095 171.533 50.2333Z" fill="#EF4A6B"/>
<path d="M174.84 44.7333H176.1V45.7286C176.415 45.3619 176.677 45.1 176.94 44.9429C177.36 44.681 177.832 44.5238 178.357 44.5238C178.934 44.5238 179.459 44.681 179.827 44.9429C180.037 45.1 180.247 45.3619 180.404 45.6238C180.667 45.2572 181.034 44.9429 181.401 44.7857C181.769 44.6286 182.189 44.5238 182.714 44.5238C183.763 44.5238 184.446 44.8905 184.813 45.5714C185.023 45.9381 185.128 46.4619 185.128 47.0905V51.8572H183.816V46.9333C183.816 46.4619 183.711 46.1476 183.448 45.9381C183.186 45.781 182.871 45.6762 182.504 45.6762C181.979 45.6762 181.559 45.8333 181.191 46.1476C180.824 46.4619 180.667 46.9857 180.667 47.7191V51.8572H179.354V47.1952C179.354 46.7238 179.302 46.3572 179.144 46.1476C178.934 45.8333 178.567 45.6762 178.042 45.6762C177.57 45.6762 177.097 45.8333 176.73 46.2C176.31 46.5667 176.153 47.1952 176.153 48.0857V51.8572H174.893L174.84 44.7333Z" fill="#EF4A6B"/>
<path d="M195.205 45.0478C195.468 45.205 195.678 45.4145 195.94 45.7288V44.8383H197.095V51.3335C197.095 52.224 196.938 52.9571 196.675 53.481C196.15 54.4762 195.153 54.9476 193.683 54.9476C192.843 54.9476 192.161 54.7905 191.636 54.4238C191.059 54.0571 190.744 53.5333 190.691 52.8H192.004C192.056 53.1143 192.214 53.3762 192.371 53.5333C192.633 53.7952 193.106 53.9524 193.736 53.9524C194.733 53.9524 195.363 53.6381 195.678 52.9571C195.835 52.5905 195.94 51.9097 195.94 50.9145C195.678 51.2812 195.363 51.5431 194.995 51.7526C194.628 51.9097 194.156 52.0145 193.578 52.0145C192.738 52.0145 192.056 51.7526 191.426 51.1764C190.796 50.6526 190.481 49.7097 190.481 48.4526C190.481 47.2478 190.796 46.305 191.426 45.6764C192.056 44.9955 192.791 44.6812 193.683 44.6812C194.261 44.6288 194.786 44.7859 195.205 45.0478ZM195.363 46.305C194.995 45.8859 194.471 45.6764 193.893 45.6764C193.001 45.6764 192.371 46.0954 192.056 46.8812C191.899 47.3002 191.794 47.8764 191.794 48.5574C191.794 49.3431 191.951 49.9716 192.319 50.3907C192.686 50.8097 193.106 51.0193 193.736 51.0193C194.681 51.0193 195.31 50.6526 195.678 49.8669C195.888 49.4478 195.993 48.924 195.993 48.3478C195.993 47.405 195.783 46.7764 195.363 46.305Z" fill="#EF4A6B"/>
<path d="M199.09 44.7331H200.297V45.9903C200.402 45.7284 200.612 45.4665 201.032 45.0998C201.399 44.7331 201.871 44.576 202.344 44.576C202.344 44.576 202.396 44.576 202.449 44.576C202.501 44.576 202.606 44.576 202.711 44.6284V45.8855C202.659 45.8855 202.554 45.8855 202.501 45.8331C202.449 45.8331 202.396 45.8331 202.291 45.8331C201.662 45.8331 201.137 46.0427 200.822 46.4093C200.507 46.776 200.297 47.2474 200.297 47.7712V51.8569H199.037L199.09 44.7331Z" fill="#EF4A6B"/>
<path d="M209.43 45.4667C210.112 46.0952 210.427 46.9857 210.427 48.1905C210.427 49.3952 210.112 50.2857 209.534 51.0191C208.957 51.7524 208.012 52.1191 206.753 52.1191C205.703 52.1191 204.863 51.8048 204.286 51.1238C203.656 50.4429 203.341 49.5524 203.341 48.4524C203.341 47.2476 203.656 46.3048 204.338 45.5714C204.968 44.8381 205.86 44.5238 206.963 44.5238C207.96 44.5762 208.747 44.8381 209.43 45.4667ZM208.642 50.2333C208.957 49.6572 209.115 48.9762 209.115 48.2429C209.115 47.5619 209.01 47.0381 208.8 46.6191C208.432 45.9905 207.802 45.6238 206.963 45.6238C206.175 45.6238 205.598 45.8857 205.283 46.4619C204.915 47.0381 204.758 47.6667 204.758 48.5048C204.758 49.2905 204.915 49.8667 205.283 50.3905C205.65 50.9143 206.228 51.1238 206.963 51.1238C207.75 51.1238 208.327 50.8095 208.642 50.2333Z" fill="#EF4A6B"/>
<path d="M213.262 44.7335V49.4478C213.262 49.8145 213.314 50.1288 213.472 50.3383C213.682 50.7573 214.102 50.9669 214.732 50.9669C215.624 50.9669 216.254 50.6002 216.569 49.8669C216.726 49.4478 216.831 48.924 216.831 48.2431V44.7335H218.091V51.8573H216.884V50.8097C216.726 51.0716 216.516 51.2812 216.254 51.4907C215.781 51.8573 215.204 52.0669 214.469 52.0669C213.367 52.0669 212.632 51.7002 212.265 51.0716C212.055 50.705 211.95 50.2335 211.95 49.605V44.7859L213.262 44.7335Z" fill="#EF4A6B"/>
<path d="M219.927 44.7855H221.187V45.7284C221.449 45.4141 221.712 45.1522 222.027 44.995C222.447 44.7331 222.972 44.576 223.549 44.576C224.389 44.576 225.124 44.8903 225.753 45.5188C226.331 46.1474 226.646 47.0379 226.646 48.1903C226.646 49.7617 226.226 50.8617 225.334 51.4903C224.809 51.9093 224.126 52.1188 223.444 52.1188C222.867 52.1188 222.394 52.0141 222.027 51.7522C221.817 51.6474 221.554 51.3855 221.239 51.0712V54.6857H219.927V44.7855ZM224.756 50.3903C225.176 49.9188 225.334 49.2379 225.334 48.295C225.334 47.7188 225.229 47.2474 225.071 46.8284C224.756 46.0427 224.126 45.676 223.234 45.676C222.342 45.676 221.764 46.095 221.397 46.9331C221.239 47.4046 221.134 47.9284 221.134 48.6093C221.134 49.1855 221.239 49.6046 221.397 50.0236C221.712 50.7569 222.342 51.1236 223.234 51.1236C223.864 51.0712 224.336 50.8617 224.756 50.3903Z" fill="#EF4A6B"/>
</svg>
